<?xml version="1.0" encoding="UTF-8"?>
<svg xmlns="http://www.w3.org/2000/svg" width="113" height="33" viewBox="0 0 113 33" fill="none">
  <path d="M110.081 8.38682C111.486 8.38682 112.624 7.24827 112.624 5.8438C112.624 4.43933 111.486 3.30078 110.081 3.30078C108.677 3.30078 107.538 4.43933 107.538 5.8438C107.538 7.24827 108.677 8.38682 110.081 8.38682Z" fill="#FF7C66"></path>
  <path d="M35.1642 11.8408C41.1943 11.8408 45.6985 16.3634 45.6985 22.1702C45.6985 27.9771 41.1943 32.4997 35.1642 32.4997C29.1341 32.4997 24.6299 27.9771 24.6299 22.1702C24.6299 16.3634 29.1341 11.8408 35.1642 11.8408ZM35.1642 28.654C38.9037 28.654 41.6077 25.8256 41.6077 22.1666C41.6077 18.5076 38.9001 15.6791 35.1642 15.6791C31.4283 15.6791 28.7207 18.5076 28.7207 22.1666C28.7207 25.8256 31.4283 28.654 35.1642 28.654Z" fill="#072B55"></path>
  <path d="M58.6505 11.8408C64.6806 11.8408 69.1849 16.3634 69.1849 22.1702C69.1849 27.9771 64.6806 32.4997 58.6505 32.4997C52.6205 32.4997 48.1162 27.9771 48.1162 22.1702C48.1162 16.3634 52.6205 11.8408 58.6505 11.8408ZM58.6505 28.654C62.3901 28.654 65.0941 25.8256 65.0941 22.1666C65.0941 18.5076 62.3864 15.6791 58.6505 15.6791C54.9147 15.6791 52.207 18.5076 52.207 22.1666C52.207 25.8256 54.9147 28.654 58.6505 28.654Z" fill="#072B55"></path>
  <path d="M108.035 31.6364V12.2911C108.035 12.0423 108.237 11.8447 108.482 11.8447H111.676C111.925 11.8447 112.123 12.046 112.123 12.2911V31.6364C112.123 31.8852 111.921 32.0828 111.676 32.0828H108.482C108.233 32.0828 108.035 31.8815 108.035 31.6364Z" fill="#072B55"></path>
  <path d="M96.0901 11.8414C92.6836 11.8414 90.2028 13.5977 89.0063 15.537C87.7476 13.2428 85.3509 11.8414 81.9407 11.8414C78.5305 11.8414 76.5692 13.7404 75.9289 14.754V11.6182C75.9289 11.2742 75.5557 11.0583 75.2556 11.2303L71.9369 13.1476C71.8637 13.1916 71.8198 13.2684 71.8198 13.3525V31.6367C71.8198 31.8855 72.0211 32.0831 72.2662 32.0831H75.4825C75.7313 32.0831 75.9289 31.8818 75.9289 31.6367V20.9084C75.9289 17.6226 78.3439 15.7236 81.3004 15.7236C84.2568 15.7236 85.9693 17.6226 85.9693 20.9084V31.6367C85.9693 31.8855 86.1705 32.0831 86.4157 32.0831H89.632C89.8808 32.0831 90.0783 31.8818 90.0783 31.6367V20.6633C90.1808 17.5458 92.5555 15.7273 95.4498 15.7273C98.3441 15.7273 100.119 17.6263 100.119 20.9121V31.6403C100.119 31.8892 100.32 32.0867 100.565 32.0867H103.781C104.03 32.0867 104.228 31.8855 104.228 31.6403V20.0449C104.228 15.2333 101.377 11.845 96.0901 11.845V11.8414Z" fill="#072B55"></path>
  <path d="M11.4015 11.8412C8.49625 11.8412 5.94957 12.8913 4.08713 14.6257V0.948249C4.08713 0.604301 3.71391 0.388418 3.41387 0.560392L0.117089 2.46308C0.0439083 2.50699 0 2.58383 0 2.66799V31.6365C0 31.8853 0.201246 32.0829 0.446401 32.0829H3.64073C3.88954 32.0829 4.08713 31.8816 4.08713 31.6365V29.7118C5.94957 31.4462 8.49625 32.4963 11.4015 32.4963C17.4316 32.4963 21.9358 27.9738 21.9358 22.1669C21.9358 16.3601 17.4316 11.8375 11.4015 11.8375V11.8412ZM11.4015 28.6544C7.66199 28.6544 4.95798 25.8259 4.95798 22.1669C4.95798 18.5079 7.66565 15.6795 11.4015 15.6795C15.1374 15.6795 17.8451 18.5079 17.8451 22.1669C17.8451 25.8259 15.1374 28.6544 11.4015 28.6544Z" fill="#072B55"></path>
</svg>
