<svg xmlns="http://www.w3.org/2000/svg" width="80" height="33" viewBox="0 0 80 33"><g><g><g><path fill="#0083ca" d="M53.205 21.746h-11.52l-.716 3.003c-.12.408-.191.83-.214 1.254.008.866.493 1.345 1.703 1.345s1.77-.561 2.156-2.211l.247-1.13h7.81l-.297 1.254c-1.267 5.395-3.942 7.309-10.41 7.309-5.2 0-9.274-1.336-9.274-5.775.007-1.245.159-2.486.453-3.696l1.48-6.369c1.4-6.072 4.157-8.25 10.584-8.25 6.196 0 9.356 2.005 9.356 5.965.015.937-.096 1.872-.329 2.78zm-6.191-7.045c0-.916-.567-1.395-1.742-1.395a1.99 1.99 0 0 0-2.103 1.832l-.682 2.953h3.878l.566-2.59c.07-.27.097-.548.083-.825z"/></g><g><path fill="#0083ca" d="M73.861 24.493c-1.21 5.396-3.909 8.134-10.756 8.134-6.303 0-9.274-2.087-9.224-6.393.063-1.234.25-2.459.56-3.655l1.382-6.08c1.242-5.52 3.867-8.168 10.763-8.209 6.255 0 9.275 2.087 9.225 6.344a18.862 18.862 0 0 1-.56 3.655zm-5.874-9.198c.017-1.081-.618-1.65-1.755-1.65-1.278 0-2.003.66-2.358 2.138l-2.069 8.916c-.066.27-.097.548-.09.826-.017 1.09.486 1.651 1.755 1.651 1.27 0 2.003-.62 2.358-2.138l2.06-8.884c.067-.253.1-.514.1-.776z"/></g><g><path fill="#0083ca" d="M36.866.73L28.25 2.718 21.51 31.99h8.155L36.865.73z"/></g><g><path fill="#0083ca" d="M25.11 9.72c.203-.84.306-1.7.304-2.565C25.414 2.939 21.982.72 15.39.72 8.23.72 5.228 3.022 3.508 10.373L1.113 20.627a22.16 22.16 0 0 0-.823 5.181c0 4.604 3.119 6.782 9.76 6.782 4.205 0 7.2-.916 9.11-2.871 1.514-1.518 2.337-3.523 3.168-7.425l.345-1.65h-8.542l-.674 3.085c-.478 2.17-1.087 2.822-2.56 2.822s-2.04-.561-2.04-1.56c.01-.515.081-1.027.214-1.526l3.085-13.2c.61-2.607.906-3.39 2.733-3.39 1.21 0 1.95.569 1.95 1.526a6.55 6.55 0 0 1-.19 1.444L16 12.666h8.46z"/></g><g><path fill="#0083ca" d="M77.87 9.494v-.362h.1c.109 0 .159.042.159.135v.05c0 .126-.05.177-.175.177zm.713.973a.24.24 0 0 1-.082-.206v-.24c0-.223-.058-.306-.24-.356a.29.29 0 0 0 .231-.322v-.19c0-.24-.123-.33-.444-.33h-.56v1.653h.379v-.67h.09c.173 0 .173.033.173.19v.29a.249.249 0 0 0 .05.19zM77.99 8.56c.615.01 1.11.507 1.12 1.123a1.146 1.146 0 0 1-1.17 1.122 1.146 1.146 0 0 1-1.118-1.172 1.154 1.154 0 0 1 1.16-1.122zm.017 2.418a1.282 1.282 0 0 0 1.284-1.304c0-.72-.583-1.303-1.3-1.303-.719 0-1.3.584-1.3 1.303a1.297 1.297 0 0 0 1.291 1.312z"/></g></g></g></svg>
